# Blender v3.6.0 OBJ File: ''
# www.blender.org
mtllib cruz.mtl
o Cube_Cube.001
v -1.413021 -2.865481 1.000000
v -1.413021 2.865481 1.000000
v -1.413021 -2.865481 -1.000000
v -1.413021 2.865481 -1.000000
v 1.413021 -2.865481 1.000000
v 1.413021 2.865481 1.000000
v 1.413021 -2.865481 -1.000000
v 1.413021 2.865481 -1.000000
v -1.413021 -0.955160 1.000000
v -1.413021 0.955160 1.000000
v -1.413021 0.955160 -1.000000
v -1.413021 -0.955160 -1.000000
v 1.413021 0.955160 -1.000000
v 1.413021 -0.955160 -1.000000
v 1.413021 0.955160 1.000000
v 1.413021 -0.955160 1.000000
v 1.413021 -0.955160 2.665579
v 1.413021 0.955160 2.665579
v -1.413021 0.955160 2.665579
v -1.413021 -0.955160 2.665579
v -1.413021 -0.955160 -2.665579
v -1.413021 0.955160 -2.665579
v 1.413021 0.955160 -2.665579
v 1.413021 -0.955160 -2.665579
vt 0.000000 0.000000
vt 1.000000 0.000000
vt 1.000000 1.000000
vt 0.000000 1.000000
vt 0.000000 0.000000
vt 1.000000 0.000000
vt 1.000000 1.000000
vt 0.000000 1.000000
vt 0.000000 0.000000
vt 1.000000 0.000000
vt 1.000000 1.000000
vt 0.000000 1.000000
vt 0.000000 0.000000
vt 1.000000 0.000000
vt 1.000000 1.000000
vt 0.000000 1.000000
vt 0.000000 0.000000
vt 1.000000 0.000000
vt 1.000000 1.000000
vt 0.000000 1.000000
vt 0.000000 0.000000
vt 0.000000 1.000000
vt 0.000000 0.000000
vt 1.000000 0.000000
vt 1.000000 1.000000
vt 0.000000 0.000000
vt 1.000000 0.000000
vt 1.000000 1.000000
vt 0.000000 1.000000
vt 0.000000 0.000000
vt 1.000000 0.000000
vt 1.000000 1.000000
vt 0.000000 1.000000
vt 1.000000 0.000000
vt 1.000000 1.000000
vt 0.000000 1.000000
vt 0.000000 0.000000
vt 1.000000 0.000000
vt 1.000000 1.000000
vt 0.000000 1.000000
vt 0.000000 0.000000
vt 1.000000 0.000000
vt 1.000000 1.000000
vt -0.000000 1.000000
vt 0.000000 0.000000
vt 1.000000 0.000000
vt 1.000000 1.000000
vt 0.000000 1.000000
vt 1.000000 1.000000
vt 1.000000 0.000000
vt 1.000000 1.000000
vt 1.000000 0.000000
vt 0.000000 0.000000
vt 1.000000 0.000000
vt 1.000000 1.000000
vt 0.000000 1.000000
vt 0.000000 0.000000
vt 1.000000 0.000000
vt 1.000000 1.000000
vt -0.000000 1.000000
vt 1.000000 1.000000
vt 1.000000 0.000000
vt 1.000000 1.000000
vt 1.000000 0.000000
vt 0.000000 0.000000
vt 1.000000 0.000000
vt 1.000000 1.000000
vt 0.000000 1.000000
vn -1.0000 0.0000 0.0000
vn 0.0000 0.0000 -1.0000
vn 1.0000 0.0000 0.0000
vn 0.0000 0.0000 1.0000
vn 0.0000 -1.0000 0.0000
vn 0.0000 1.0000 0.0000
usemtl None
s off
f 10/1/1 2/2/1 4/3/1 11/4/1
f 11/5/2 4/6/2 8/7/2 13/8/2
f 13/9/3 8/10/3 6/11/3 15/12/3
f 15/13/4 6/14/4 2/15/4 10/16/4
f 3/17/5 7/18/5 5/19/5 1/20/5
f 8/21/6 4/6/6 2/15/6 6/22/6
f 5/23/4 16/24/4 9/25/4 1/20/4
f 7/26/3 14/27/3 16/28/3 5/29/3
f 14/30/3 13/31/3 15/32/3 16/33/3
f 3/17/2 12/34/2 14/35/2 7/36/2
f 1/37/1 9/38/1 12/39/1 3/40/1
f 9/41/1 10/42/1 11/43/1 12/44/1
f 17/45/4 18/46/4 19/47/4 20/48/4
f 15/13/3 18/46/3 17/49/3 16/33/3
f 10/1/6 19/50/6 18/51/6 15/12/6
f 9/41/1 20/52/1 19/47/1 10/16/1
f 16/53/5 17/54/5 20/55/5 9/56/5
f 21/57/2 22/58/2 23/59/2 24/60/2
f 11/5/1 22/58/1 21/61/1 12/44/1
f 13/9/6 23/62/6 22/63/6 11/4/6
f 14/30/3 24/64/3 23/59/3 13/8/3
f 12/65/5 21/66/5 24/67/5 14/68/5
